<svg width="40" height="40" viewBox="0 0 40 40" fill="none" xmlns="http://www.w3.org/2000/svg">
<path fill-rule="evenodd" clip-rule="evenodd" d="M20 12C15.589 12 12 15.589 12 20C12 24.411 15.589 28 20 28C24.411 28 28 24.411 28 20C28 15.589 24.411 12 20 12ZM20 16C22.209 16 24 17.791 24 20C24 22.209 22.209 24 20 24C17.791 24 16 22.209 16 20C16 17.791 17.791 16 20 16Z" fill="white"/>
<path fill-rule="evenodd" clip-rule="evenodd" d="M20 0C21.1046 0 22 0.89543 22 2V6C22 7.10457 21.1046 8 20 8C18.8954 8 18 7.10457 18 6V2C18 0.89543 18.8954 0 20 0ZM5.85776 5.85779C6.63881 5.07674 7.90514 5.07674 8.68619 5.85778L11.5142 8.68578C12.2952 9.46683 12.2952 10.7332 11.5142 11.5142C10.7331 12.2953 9.46681 12.2953 8.68576 11.5142L5.85776 8.68621C5.07671 7.90517 5.07671 6.63884 5.85776 5.85779ZM34.1425 5.85805C34.9234 6.63924 34.9232 7.90557 34.142 8.68647L31.3129 11.5145C30.5317 12.2954 29.2654 12.2951 28.4845 11.514C27.7036 10.7328 27.7038 9.46643 28.485 8.68552L31.3141 5.85753C32.0953 5.07662 33.3616 5.07685 34.1425 5.85805ZM0 20C0 18.8954 0.89543 18 2 18H6C7.10457 18 8 18.8954 8 20C8 21.1046 7.10457 22 6 22H2C0.89543 22 0 21.1046 0 20ZM32 20C32 18.8954 32.8954 18 34 18H38C39.1046 18 40 18.8954 40 20C40 21.1046 39.1046 22 38 22H34C32.8954 22 32 21.1046 32 20ZM11.5139 28.4845C12.2951 29.2655 12.2953 30.5318 11.5144 31.313L8.68643 34.142C7.90552 34.9231 6.63919 34.9234 5.85801 34.1425C5.07682 33.3615 5.0766 32.0952 5.85751 31.314L8.68551 28.485C9.46643 27.7039 10.7328 27.7036 11.5139 28.4845ZM28.4848 28.4848C29.2658 27.7037 30.5321 27.7037 31.3132 28.4848L34.1422 31.3138C34.9233 32.0948 34.9233 33.3611 34.1423 34.1422C33.3612 34.9233 32.0949 34.9233 31.3138 34.1422L28.4848 31.3132C27.7037 30.5322 27.7037 29.2659 28.4848 28.4848ZM20 32C21.1046 32 22 32.8954 22 34V38C22 39.1046 21.1046 40 20 40C18.8954 40 18 39.1046 18 38V34C18 32.8954 18.8954 32 20 32Z" fill="white"/>
</svg>
