<svg width="40" height="40" viewBox="0 0 40 40" fill="none" xmlns="http://www.w3.org/2000/svg">
<path fill-rule="evenodd" clip-rule="evenodd" d="M19.9999 34.8788L5.49955 17.4091H34.5002L19.9999 34.8788ZM8.28513 7.51714H31.7146L35.2563 13.892H4.74337L8.28513 7.51714ZM39.9834 15.4114C39.979 15.3806 39.9702 15.3516 39.9649 15.3217C39.9421 15.203 39.906 15.086 39.8585 14.9717C39.8489 14.9497 39.8471 14.9251 39.8374 14.9023C39.8304 14.8882 39.819 14.8785 39.8119 14.8644C39.8005 14.8425 39.7952 14.8187 39.7829 14.7959L34.2874 4.90392C33.977 4.34557 33.3887 4 32.7495 4H7.25021C6.61185 4 6.0236 4.34557 5.71321 4.90392L0.217678 14.7959C0.204488 14.8187 0.199216 14.8425 0.187785 14.8644C0.180751 14.8785 0.16932 14.8882 0.163165 14.9023C0.152613 14.9251 0.150853 14.9497 0.14206 14.9717C0.0928202 15.086 0.0576468 15.203 0.0356647 15.3217C0.0295097 15.3516 0.020714 15.3806 0.0163176 15.4105C-0.00302668 15.5564 -0.00566163 15.7024 0.0110448 15.8458C0.0136827 15.8748 0.021601 15.9029 0.0268767 15.9319C0.046221 16.0524 0.0787488 16.1693 0.122713 16.2827C0.135023 16.3153 0.14558 16.3487 0.161407 16.3812C0.222078 16.5149 0.297691 16.6415 0.391774 16.7576C0.396171 16.7628 0.397931 16.769 0.401448 16.7734L18.6264 38.7309C18.6273 38.7318 18.6273 38.7327 18.6282 38.7336L18.6466 38.7555C18.666 38.7793 18.6915 38.796 18.7117 38.818C18.7645 38.876 18.8154 38.9349 18.877 38.9859C18.8876 38.9938 18.899 39 18.9095 39.0088C18.9412 39.0325 18.9746 39.0536 19.0071 39.0756C19.074 39.1213 19.1426 39.1644 19.2138 39.1996C19.2507 39.218 19.2876 39.2347 19.3254 39.2506C19.4011 39.2831 19.4793 39.3077 19.5585 39.328C19.591 39.3368 19.6235 39.3473 19.6569 39.3543C19.7704 39.3763 19.8847 39.3913 19.999 39.3913C19.9998 39.3913 20.0007 39.3913 20.0007 39.3913C20.115 39.3913 20.2293 39.3763 20.3428 39.3543C20.3762 39.3473 20.4087 39.3368 20.4421 39.328C20.5204 39.3077 20.5986 39.2831 20.6743 39.2506C20.7121 39.2347 20.749 39.218 20.7859 39.1996C20.8572 39.1644 20.9257 39.1213 20.9926 39.0756C21.026 39.0536 21.0585 39.0325 21.0902 39.0088C21.1007 39 21.1121 38.9938 21.1227 38.9859C21.1842 38.9349 21.2352 38.876 21.288 38.818C21.3082 38.796 21.3337 38.7793 21.3531 38.7555L21.3724 38.7336C21.3724 38.7327 21.3733 38.7318 21.3733 38.7309L39.5983 16.7734C39.6027 16.769 39.6035 16.7628 39.6079 16.7576C39.702 16.6415 39.7776 16.5149 39.8392 16.3812C39.8541 16.3487 39.8647 16.3153 39.8779 16.2827C39.9218 16.1684 39.9535 16.0524 39.9728 15.9319C39.9781 15.9029 39.986 15.8748 39.9887 15.8458C40.0054 15.7024 40.0036 15.5565 39.9834 15.4114Z" fill="white"/>
</svg>
