<svg width="40" height="40" viewBox="0 0 40 40" fill="none" xmlns="http://www.w3.org/2000/svg">
<path fill-rule="evenodd" clip-rule="evenodd" d="M27 4C24.479 4 22.063 4.72 20 6.043C17.936 4.72 15.521 4 13 4C5.832 4 0 9.832 0 17C0 22.956 4.26599 27.073 7.69299 30.382C8.19499 30.866 8.69003 31.344 9.16302 31.82C12.037 34.711 17.268 38.935 17.489 39.114C18.222 39.705 19.111 40 20 40C20.889 40 21.778 39.705 22.511 39.114C22.732 38.935 27.963 34.711 30.837 31.82C31.31 31.344 31.805 30.866 32.307 30.382C35.734 27.073 40 22.956 40 17C40 9.832 34.168 4 27 4ZM27 8C31.971 8 36 12.029 36 17C36 21.97 31.426 25.553 28 29C25.248 31.768 20 36 20 36C20 36 14.752 31.768 12 29C8.573 25.553 4 21.97 4 17C4 12.029 8.029 8 13 8C15.829 8 18.35 9.308 20 11.349C21.65 9.308 24.171 8 27 8Z" fill="white"/>
</svg>
