<svg xmlns="http://www.w3.org/2000/svg" version="1.1" xmlns:xlink="http://www.w3.org/1999/xlink" xmlns:svgjs="http://svgjs.dev/svgjs" width="1500" height="390" viewBox="0 0 1500 390"><g transform="matrix(1,0,0,1,-0.9090909090909918,0.5140401146130671)"><svg viewBox="0 0 396 103" data-background-color="#efe9dd" preserveAspectRatio="xMidYMid meet" height="390" width="1500" xmlns="http://www.w3.org/2000/svg" xmlns:xlink="http://www.w3.org/1999/xlink"><g id="tight-bounds" transform="matrix(1,0,0,1,0.2400000000000091,-0.13575931232088578)"><svg viewBox="0 0 395.52 103.2715186246418" height="103.2715186246418" width="395.52"><g><svg viewBox="0 0 395.52 103.2715186246418" height="103.2715186246418" width="395.52"><g><svg viewBox="0 0 395.52 103.2715186246418" height="103.2715186246418" width="395.52"><g id="textblocktransform"><svg viewBox="0 0 395.52 103.2715186246418" height="103.2715186246418" width="395.52" id="textblock"><g><svg viewBox="0 0 395.52 103.2715186246418" height="103.2715186246418" width="395.52"><g transform="matrix(1,0,0,1,0,0)"><svg width="395.52" viewBox="1.2499999999999998 -36.4 139.59 36.45" height="103.2715186246418" data-palette-color="#8a2851"><path d="M14.4 0.05L14.4 0.05Q12 0.05 9.65-0.48 7.3-1 5.4-1.95 3.5-2.9 2.38-4.25 1.25-5.6 1.25-7.3L1.25-7.3Q1.25-9.4 2.53-10.58 3.8-11.75 5.65-11.75L5.65-11.75Q7.35-11.75 8.45-11.23 9.55-10.7 10.48-10.18 11.4-9.65 12.45-9.65L12.45-9.65Q14.1-9.65 14.1-10.95L14.1-10.95Q14.1-11.6 12.95-12.1 11.8-12.6 10-13.28 8.2-13.95 6.25-15.1L6.25-15.1Q3.35-16.85 2.3-18.88 1.25-20.9 1.25-23.8L1.25-23.8Q1.25-26.75 3.1-29.3 4.95-31.85 8.1-33.4 11.25-34.95 15.15-34.95L15.15-34.95Q18.9-34.95 21.95-33.8 25-32.65 26.78-30.73 28.55-28.8 28.55-26.35L28.55-26.35Q28.55-24.35 27.73-23.15 26.9-21.95 25.68-21.4 24.45-20.85 23.3-20.85L23.3-20.85Q21.6-20.85 20.75-21.05 19.9-21.25 19.43-21.48 18.95-21.7 18.43-21.9 17.9-22.1 16.85-22.1L16.85-22.1Q16.25-22.1 15.65-21.7 15.05-21.3 15.05-20.5L15.05-20.5Q15.05-19.75 16.13-19.33 17.2-18.9 18.4-18.45L18.4-18.45Q22.85-16.85 25.15-14.68 27.45-12.5 27.45-8.95L27.45-8.95Q27.45-4.7 24.03-2.33 20.6 0.05 14.4 0.05ZM38.05 0L38.05 0Q35.6 0 33.57-0.75 31.55-1.5 30.35-3.03 29.15-4.55 29.15-6.9L29.15-6.9Q29.15-8.9 30.35-10.3 31.55-11.7 33.57-12.45 35.6-13.2 38.05-13.2L38.05-13.2Q39.5-13.2 40.7-12.98 41.9-12.75 42.35-12.45L42.35-12.45Q42.35-13.6 41.4-14.48 40.45-15.35 38.1-15.35L38.1-15.35Q37-15.35 36.37-15.18 35.75-15 35.25-14.75 34.75-14.5 34.12-14.33 33.5-14.15 32.45-14.15L32.45-14.15Q30.9-14.15 29.97-14.98 29.05-15.8 29.05-17.5L29.05-17.5Q29.05-19.05 29.92-20.18 30.8-21.3 32.2-22.05 33.6-22.8 35.22-23.15 36.85-23.5 38.35-23.5L38.35-23.5Q42.8-23.5 45.6-21.88 48.4-20.25 49.75-17.65 51.1-15.05 51.1-12L51.1-12Q51.1-10.3 50.82-8.85 50.55-7.4 50.1-6.6L50.1-6.6Q50.8-6 51.17-5.2 51.55-4.4 51.55-3.55L51.55-3.55Q51.55-2.15 50.62-1.07 49.7 0 48 0L48 0Q46.7 0 45.95-0.4 45.2-0.8 44.45-1.45L44.45-1.45Q43.25-0.75 41.8-0.38 40.35 0 38.05 0ZM39.05-5.05L39.05-5.05Q40.2-5.05 40.77-5.53 41.35-6 41.35-6.6L41.35-6.6Q41.35-7.2 40.77-7.68 40.2-8.15 39.05-8.15L39.05-8.15Q37.95-8.15 37.35-7.68 36.75-7.2 36.75-6.6L36.75-6.6Q36.75-6 37.35-5.53 37.95-5.05 39.05-5.05ZM59-0.1L59-0.1Q55.65-0.1 54.34-4.23 53.05-8.35 53.05-17.55L53.05-17.55Q53.05-22.7 53.4-26.63 53.75-30.55 55.02-32.77 56.3-35 59-35L59-35Q60.95-35 61.97-33.85 63-32.7 63.42-30.6 63.84-28.5 63.9-25.6 63.95-22.7 63.95-19.2L63.95-19.2 64.09-19.3Q66.59-21 68.95-22.23 71.3-23.45 73.25-23.45L73.25-23.45Q74.7-23.45 75.67-22.78 76.65-22.1 77.15-21.08 77.65-20.05 77.65-19L77.65-19Q77.65-17.1 76.3-15.55 74.95-14 72.8-12.4L72.8-12.4Q73.4-11.65 73.97-10.78 74.55-9.9 75.2-8.85L75.2-8.85Q76.05-7.55 76.59-6.15 77.15-4.75 77.15-3.6L77.15-3.6Q77.15-2.25 76.5-1.48 75.84-0.7 74.9-0.38 73.95-0.05 73-0.1L73-0.1Q71.55-0.2 70.09-1.5 68.65-2.8 67.3-4.55L67.3-4.55Q66.7-5.3 66.12-6.13 65.55-6.95 65.05-7.75L65.05-7.75Q64.3-7.45 63.59-7.25L63.59-7.25Q63.25-3.55 62.22-1.83 61.2-0.1 59-0.1ZM84.49-24.25L84.49-24.25Q82.04-24.25 80.34-26.03 78.64-27.8 78.64-30.35L78.64-30.35Q78.64-32.05 79.42-33.4 80.19-34.75 81.52-35.58 82.84-36.4 84.49-36.4L84.49-36.4Q86.09-36.4 87.42-35.58 88.74-34.75 89.54-33.4 90.34-32.05 90.34-30.35L90.34-30.35Q90.34-28.65 89.54-27.28 88.74-25.9 87.42-25.08 86.09-24.25 84.49-24.25ZM84.49 0L84.49 0Q82.49 0 81.52-1.15 80.54-2.3 80.22-4.67 79.89-7.05 79.84-10.8L79.84-10.8Q79.84-14.55 80.17-16.95 80.49-19.35 81.49-20.48 82.49-21.6 84.49-21.6L84.49-21.6Q86.49-21.6 87.47-20.48 88.44-19.35 88.79-16.95 89.14-14.55 89.14-10.8L89.14-10.8Q89.19-7.05 88.84-4.67 88.49-2.3 87.49-1.15 86.49 0 84.49 0ZM112.09 0L112.09 0Q110.09 0 109.27-1.13 108.44-2.25 108.29-3.98 108.14-5.7 108.14-7.45L108.14-7.45Q108.14-10.1 107.39-11.73 106.64-13.35 104.74-13.35L104.74-13.35Q103.04-13.35 102.24-11.73 101.44-10.1 101.44-7.45L101.44-7.45Q101.44-5.7 101.32-4 101.19-2.3 100.39-1.18 99.59-0.05 97.49-0.05L97.49-0.05Q95.94-0.05 94.92-1.2 93.89-2.35 93.34-4.2 92.79-6.05 92.57-8.2 92.34-10.35 92.34-12.35L92.34-12.35Q92.34-14.35 92.54-16.45 92.74-18.55 93.27-20.35 93.79-22.15 94.79-23.25 95.79-24.35 97.39-24.35L97.39-24.35Q100.24-24.35 100.94-21.75L100.94-21.75Q101.54-22.4 102.87-22.98 104.19-23.55 105.89-23.55L105.89-23.55Q109.74-23.55 112.19-21.6 114.64-19.65 115.77-16.23 116.89-12.8 116.84-8.3L116.84-8.3Q116.84-6 116.42-4.13 115.99-2.25 114.97-1.13 113.94 0 112.09 0ZM127.34 0L127.34 0Q124.89 0 122.86-0.75 120.84-1.5 119.64-3.03 118.44-4.55 118.44-6.9L118.44-6.9Q118.44-8.9 119.64-10.3 120.84-11.7 122.86-12.45 124.89-13.2 127.34-13.2L127.34-13.2Q128.79-13.2 129.99-12.98 131.19-12.75 131.64-12.45L131.64-12.45Q131.64-13.6 130.69-14.48 129.74-15.35 127.39-15.35L127.39-15.35Q126.29-15.35 125.66-15.18 125.04-15 124.54-14.75 124.04-14.5 123.41-14.33 122.79-14.15 121.74-14.15L121.74-14.15Q120.19-14.15 119.26-14.98 118.34-15.8 118.34-17.5L118.34-17.5Q118.34-19.05 119.21-20.18 120.09-21.3 121.49-22.05 122.89-22.8 124.51-23.15 126.14-23.5 127.64-23.5L127.64-23.5Q132.09-23.5 134.89-21.88 137.69-20.25 139.04-17.65 140.39-15.05 140.39-12L140.39-12Q140.39-10.3 140.11-8.85 139.84-7.4 139.39-6.6L139.39-6.6Q140.09-6 140.46-5.2 140.84-4.4 140.84-3.55L140.84-3.55Q140.84-2.15 139.91-1.07 138.99 0 137.29 0L137.29 0Q135.99 0 135.24-0.4 134.49-0.8 133.74-1.45L133.74-1.45Q132.54-0.75 131.09-0.38 129.64 0 127.34 0ZM128.34-5.05L128.34-5.05Q129.49-5.05 130.06-5.53 130.64-6 130.64-6.6L130.64-6.6Q130.64-7.2 130.06-7.68 129.49-8.15 128.34-8.15L128.34-8.15Q127.24-8.15 126.64-7.68 126.04-7.2 126.04-6.6L126.04-6.6Q126.04-6 126.64-5.53 127.24-5.05 128.34-5.05Z" opacity="1" transform="matrix(1,0,0,1,0,0)" fill="#8a2851" class="wordmark-text-0" data-fill-palette-color="primary" id="text-0"></path></svg></g></svg></g></svg></g></svg></g></svg></g><defs></defs></svg><rect width="395.52" height="103.2715186246418" fill="none" stroke="none" visibility="hidden"></rect></g></svg></g></svg>